<?xml version="1.0" encoding="UTF-8"?>
<svg xmlns="http://www.w3.org/2000/svg" viewBox="0 0 2000 2000" width="512" height="512">
  <g transform="translate(0,2000) scale(0.1,-0.1)">
    <path d="M9225 15109 c-115 -4 -217 -9 -225 -12 -8 -4 -78 -11 -155 -16 -77
-6 -165 -15 -195 -21 -85 -17 -214 -52 -226 -61 -6 -5 -51 -20 -100 -33 -215
-59 -359 -122 -611 -266 -48 -27 -93 -50 -100 -50 -7 0 -13 -3 -13 -8 0 -4
-14 -13 -32 -21 -17 -8 -38 -21 -47 -30 -9 -9 -27 -22 -41 -29 -14 -6 -68 -47
-121 -90 -53 -42 -125 -99 -160 -127 -86 -69 -248 -225 -264 -255 -7 -14 -35
-47 -62 -75 -27 -27 -69 -78 -94 -113 -24 -35 -74 -107 -112 -160 -37 -53 -74
-112 -82 -130 -8 -18 -22 -35 -31 -39 -19 -7 -105 20 -144 45 -26 17 -120 40
-280 68 -125 22 -443 22 -550 1 -233 -46 -327 -70 -405 -103 -71 -30 -202 -98
-221 -115 -11 -11 -23 -19 -27 -19 -11 0 -139 -100 -202 -158 -33 -30 -76 -65
-96 -77 -19 -13 -43 -34 -52 -48 -9 -14 -27 -37 -39 -50 -102 -107 -208 -281
-287 -472 -12 -27 -30 -66 -40 -85 -10 -19 -26 -73 -35 -120 -9 -47 -21 -98
-26 -115 -17 -61 -23 -103 -29 -210 l-6 -110 -36 -12 c-20 -6 -56 -15 -80 -18
-24 -4 -46 -8 -49 -10 -4 -2 -42 -13 -86 -25 -43 -12 -131 -41 -194 -66 -162
-64 -162 -64 -190 -69 -25 -5 -84 -29 -110 -45 -8 -5 -29 -16 -45 -23 -17 -8
-37 -21 -45 -29 -8 -7 -62 -45 -120 -83 -57 -38 -111 -75 -120 -82 -30 -27
-76 -61 -140 -105 -72 -49 -211 -180 -230 -217 -13 -26 -128 -180 -146 -196
-30 -27 -181 -274 -238 -390 -65 -132 -114 -290 -167 -540 l-43 -200 1 -300
c1 -282 2 -308 27 -425 49 -237 74 -316 166 -505 16 -33 40 -85 54 -115 53
-115 160 -300 174 -300 4 0 18 -17 32 -38 56 -85 140 -176 311 -337 35 -33 71
-69 81 -80 15 -19 52 -48 193 -151 33 -24 92 -59 130 -78 39 -18 122 -58 185
-89 63 -31 127 -59 143 -62 15 -4 29 -11 32 -15 3 -5 38 -18 78 -30 39 -12 83
-27 97 -35 29 -15 107 -30 235 -45 50 -5 128 -14 175 -20 119 -14 8039 -14
8175 0 152 15 234 32 252 52 15 17 14 24 -10 96 -64 188 -73 314 -55 778 9
232 12 227 -94 189 -93 -33 -171 -50 -333 -73 -125 -18 -248 -19 -3225 -16
-1702 2 -3228 2 -3390 1 -532 -3 -1093 4 -1190 14 -127 14 -132 15 -196 38
-30 12 -69 21 -87 21 -18 0 -54 11 -81 25 -27 14 -54 25 -59 25 -16 0 -139 61
-194 97 -97 62 -233 179 -233 201 0 4 -25 34 -55 67 -30 33 -58 68 -61 78 -3
9 -9 17 -14 17 -4 0 -18 19 -30 43 -23 46 -42 79 -50 87 -39 39 -122 281 -136
398 -12 88 -14 368 -4 397 6 16 15 59 20 95 24 172 65 283 156 422 26 40 48
76 49 79 2 28 227 262 263 273 12 4 22 11 22 15 0 17 182 134 260 168 48 21
133 47 143 45 5 -2 37 6 70 17 107 33 176 42 373 48 197 6 331 -4 435 -33 195
-55 212 -55 208 -2 -2 18 -6 38 -10 43 -15 21 -59 147 -54 155 3 5 0 12 -6 15
-5 4 -8 14 -5 22 3 8 -1 28 -10 45 -8 16 -13 36 -10 44 3 8 2 14 -3 14 -4 0
-8 6 -8 13 0 6 -6 49 -12 95 -15 105 -6 379 14 440 8 23 15 53 15 65 0 64 69
217 142 314 24 32 46 60 49 63 4 3 31 37 60 76 92 121 225 231 311 255 24 7
55 21 70 31 14 10 31 18 38 18 6 0 23 6 38 14 15 8 45 17 66 20 22 4 45 11 52
17 38 32 367 34 469 3 27 -8 67 -17 90 -19 46 -6 164 -48 215 -78 61 -35 144
-91 170 -115 14 -13 43 -35 65 -49 22 -14 84 -71 139 -125 120 -121 129 -122
167 -23 14 39 32 97 40 130 7 33 16 62 20 65 3 3 14 38 23 78 17 77 58 188
106 287 16 33 39 85 51 115 13 30 30 66 39 80 9 14 33 50 52 80 35 54 88 116
198 231 30 31 69 74 85 94 58 71 158 166 213 203 102 69 187 121 195 122 4 0
36 18 71 40 34 22 81 46 103 54 23 8 65 26 95 39 111 52 175 76 243 92 39 9
81 21 94 26 13 6 67 17 120 24 53 8 107 18 121 21 14 3 88 8 165 11 118 5 158
2 255 -16 243 -46 308 -61 410 -95 58 -18 125 -39 150 -46 55 -15 260 -111
315 -148 22 -15 71 -52 110 -82 38 -30 78 -62 89 -70 11 -8 36 -32 57 -52 21
-21 42 -38 47 -38 10 0 151 -138 207 -202 41 -46 155 -214 155 -227 0 -6 5
-11 10 -11 6 0 10 -5 10 -12 0 -6 11 -25 24 -42 35 -47 127 -231 114 -231 -1
0 7 -16 19 -35 19 -32 37 -84 95 -285 35 -122 44 -181 52 -325 3 -58 8 -143
12 -190 6 -74 -6 -319 -22 -444 -8 -64 2 -71 82 -57 38 7 83 17 99 23 29 10
130 33 190 44 17 3 46 8 65 12 83 18 569 -31 578 -58 2 -5 10 -10 18 -10 24 0
167 -51 211 -75 23 -13 58 -29 78 -35 34 -11 37 -10 93 38 31 27 72 57 91 67
19 9 46 28 60 41 14 13 41 29 58 35 18 6 33 14 33 18 0 3 25 12 56 20 61 14
518 17 774 5 111 -5 139 -3 155 9 15 11 17 19 10 35 -26 53 -193 226 -295 304
-19 14 -57 47 -83 72 -27 25 -87 71 -135 103 -48 32 -90 63 -94 69 -4 6 -22
17 -40 25 -18 7 -54 25 -80 41 -26 15 -87 41 -135 58 -48 17 -93 36 -101 43
-16 12 -115 52 -167 67 -16 4 -57 17 -90 28 -116 40 -232 61 -338 64 -83 1
-89 8 -111 123 -8 44 -24 121 -35 170 -12 50 -26 115 -32 145 -11 51 -37 119
-94 245 -12 28 -28 66 -35 85 -20 56 -72 154 -87 163 -7 4 -13 15 -13 23 0 9
-8 28 -19 42 -10 15 -31 50 -46 77 -16 28 -45 73 -66 100 -20 28 -49 75 -63
105 -15 30 -45 76 -69 102 -44 48 -45 50 -89 116 -16 23 -40 49 -55 59 -16 10
-90 79 -167 155 -76 75 -155 148 -176 163 -20 14 -42 37 -48 50 -7 14 -16 25
-22 25 -6 0 -32 17 -59 38 -61 46 -213 142 -255 160 -17 8 -44 24 -61 35 -43
32 -83 54 -145 83 -30 14 -57 29 -60 33 -7 10 -159 81 -172 81 -6 0 -19 6 -27
13 -9 8 -45 22 -81 31 -36 9 -74 21 -85 26 -20 10 -240 73 -285 83 -14 3 -50
12 -80 21 -54 15 -180 31 -350 44 -47 4 -179 4 -295 1z" fill="#4A9BD9" />
    <path d="M13077 11319 c-61 -14 -112 -45 -153 -92 -55 -62 -82 -122 -94 -208
-11 -77 -14 -2488 -3 -2602 l6 -59 18 29 c10 15 41 120 69 231 28 112 57 220
65 240 8 20 37 127 65 237 28 110 61 234 72 275 11 41 45 170 75 285 30 116
67 239 84 274 73 157 207 301 345 370 131 65 33 61 1655 61 811 0 1491 -4
1511 -9 85 -20 134 -96 126 -196 -3 -31 -9 -60 -14 -65 -6 -6 -605 -11 -1549
-12 l-1540 -3 -64 -25 c-80 -30 -160 -105 -194 -182 -14 -29 -37 -98 -52 -153
-15 -55 -36 -134 -47 -175 -11 -41 -27 -92 -34 -114 -8 -21 -21 -64 -29 -95
-8 -31 -23 -87 -34 -126 -39 -140 -109 -401 -119 -445 -18 -83 -70 -274 -102
-375 -36 -115 -50 -167 -80 -285 -12 -47 -30 -115 -41 -152 -10 -36 -19 -75
-19 -87 0 -21 -26 -110 -61 -209 -28 -79 -26 -178 6 -239 31 -57 103 -117 159
-133 25 -7 110 -10 220 -8 147 2 180 6 186 18 4 8 19 76 33 150 26 134 86 332
146 483 36 90 38 94 151 261 43 64 185 221 291 322 186 178 515 354 809 433
118 31 268 59 355 67 44 3 86 11 93 16 9 8 12 66 12 228 0 216 3 250 22 250
13 0 89 -53 168 -118 36 -30 76 -62 90 -73 14 -11 84 -69 157 -129 72 -61 136
-110 142 -110 5 0 14 -6 18 -12 10 -17 91 -81 121 -97 12 -7 44 -32 70 -56 26
-25 50 -45 54 -45 6 0 36 -23 131 -102 20 -17 37 -38 37 -47 0 -9 -43 -50 -96
-91 -52 -41 -116 -95 -141 -119 -64 -60 -189 -158 -226 -178 -33 -16 -63 -41
-100 -80 -11 -13 -26 -23 -32 -23 -7 0 -25 -15 -42 -32 -35 -38 -77 -75 -156
-138 -32 -25 -87 -69 -123 -97 -36 -29 -70 -53 -75 -53 -11 0 -10 -22 -14 244
-2 125 -7 222 -13 228 -14 14 -413 -17 -477 -37 -27 -9 -75 -23 -105 -32 -111
-34 -343 -128 -400 -163 -8 -6 -30 -16 -48 -25 -19 -8 -48 -26 -65 -39 -18
-14 -45 -35 -62 -48 -28 -22 -307 -300 -343 -343 -34 -40 -81 -104 -97 -132
-9 -15 -27 -46 -40 -68 -13 -22 -31 -56 -40 -75 -8 -19 -20 -43 -25 -52 -17
-29 -12 -76 8 -82 9 -3 760 -7 1667 -8 1769 -1 1688 -4 1781 45 40 21 125 104
151 147 12 19 42 105 67 190 25 85 51 171 58 190 6 19 17 60 24 90 7 30 33
134 59 230 25 96 55 207 65 245 10 39 26 97 35 130 9 33 26 92 36 130 11 39
24 86 30 105 5 19 16 64 24 100 8 36 18 72 21 80 3 8 17 58 30 110 14 52 31
118 39 145 8 28 28 100 45 160 17 61 35 121 40 135 42 119 54 181 54 270 1 88
-2 100 -32 160 -35 71 -63 94 -155 128 -50 19 -78 22 -217 22 -147 0 -160 1
-170 19 -6 12 -10 99 -10 214 0 208 -9 265 -55 336 -53 84 -147 144 -253 162
-46 8 -253 10 -691 7 -344 -2 -713 -2 -818 1 l-192 6 -36 40 c-19 22 -88 103
-152 180 -65 77 -122 142 -126 144 -5 2 -19 14 -30 28 -12 13 -46 43 -76 66
l-54 42 -871 2 c-487 0 -888 -3 -909 -8z" fill="#4CAF50" />
  </g>
</svg>
